<?xml version="1.0" encoding="utf-8"?>
<!-- Generator: Adobe Illustrator 20.1.0, SVG Export Plug-In . SVG Version: 6.00 Build 0)  -->
<svg version="1.1" id="Layer_1" xmlns="http://www.w3.org/2000/svg" xmlns:xlink="http://www.w3.org/1999/xlink" x="0px" y="0px"
	 viewBox="0 0 128 128" style="enable-background:new 0 0 128 128;" xml:space="preserve">
<path fill="white" d="M89.2,5.9h-7.4l7.7,8.3v4H73.7v-4.6h7.7l-7.7-8.3v-4h15.5C89.2,1.2,89.2,5.9,89.2,5.9z M70.6,5.9h-7.4l7.7,8.3
	v4H55.1v-4.6h7.7l-7.7-8.3v-4h15.5V5.9z M52.1,6h-8v7.3h8v4.8H38.5V1.2h13.6C52.1,1.2,52.1,6,52.1,6z"/>
<g>
	<polygon fill="white" points="64.1,95.1 64,95.2 64,106.7 64.1,106.7 64.1,95.1 	"/>
	<path fill="white" d="M19.5,25.9l8.1,90.8l36.3,10.1l36.4-10.1l8.1-90.8H19.5z M91.7,46.7l-2.7,30.7h0L87,98.5l-0.2,1.9l-22.8,6.3v0
		l-0.1,0l-22.8-6.3l-1.6-17.5h11.2l0.8,8.9L64,95.2l0,0v0l12.4-3.4l1.3-14.4H64v0H51.8l-0.2-2.5L51,69.2l-0.3-3H64v0h14.7l1-11.4H64
		v0H37.1l-0.2-2.5l-0.5-5.6l-0.3-3c0,0,27.8,0,27.9,0v11.1h0V43.7h27.9L91.7,46.7z"/>
	<polygon fill="white" points="77.8,76.9 77.7,77.4 88.9,77.4 89,76.9 	"/>
</g>
</svg>
