<?xml version="1.0" encoding="utf-8"?>
<!-- Generator: Adobe Illustrator 20.1.0, SVG Export Plug-In . SVG Version: 6.00 Build 0)  -->
<svg version="1.1" id="Layer_1" xmlns="http://www.w3.org/2000/svg" xmlns:xlink="http://www.w3.org/1999/xlink" x="0px" y="0px"
	 viewBox="0 0 128 128" style="enable-background:new 0 0 128 128;" xml:space="preserve">
<path fill="white" d="M28,1.6h5.6v5.6h5.1V1.6h5.6v16.8h-5.6v-5.6h-5.1v5.6H28C28,18.4,28,1.6,28,1.6z M51.8,7.2h-5V1.6h15.5v5.6h-5
	v11.2h-5.6C51.8,18.4,51.8,7.2,51.8,7.2z M64.9,1.6h5.9l3.6,5.9l3.6-5.9h5.9v16.8h-5.6v-8.3l-3.9,6h-0.1l-3.9-6v8.3h-5.5L64.9,1.6
	L64.9,1.6z M86.6,1.6h5.6v11.3h7.9v5.6H86.6C86.6,18.5,86.6,1.6,86.6,1.6z"/>
<path fill="white" d="M19.8,26.1l8,90.2l36.1,10l36.2-10l8.1-90.2H19.8z M91.4,47.6l-0.5,5.6l-0.2,2.5H64h0H48.3l1,11.3H64h0h22.7h3
	l-0.3,3l-2.6,29.1l-0.2,1.9L64,107.2v0l-0.1,0l-22.7-6.3l-1.5-17.4h11.1l0.8,8.8L64,95.7l0,0v0l12.3-3.3L77.6,78H64h0H39.2
	l-2.7-30.5l-0.3-3H64h0h27.7L91.4,47.6z"/>
</svg>
