<?xml version="1.0" encoding="utf-8"?>
<!-- Generator: Adobe Illustrator 20.1.0, SVG Export Plug-In . SVG Version: 6.00 Build 0)  -->
<svg version="1.1" id="Layer_1" xmlns="http://www.w3.org/2000/svg" xmlns:xlink="http://www.w3.org/1999/xlink" x="0px" y="0px"
	 viewBox="0 0 128 128" style="enable-background:new 0 0 128 128;" xml:space="preserve">
<path fill="white" d="M63.3,8.2c-4.9,0-9.6,0.4-13.7,1.2C37.5,11.5,35.3,16,35.3,24.3v10.9h28.6v3.6H24.6c-8.3,0-15.6,5-17.9,14.5
	C4.1,64.2,4,71,6.8,82.3c2,8.5,6.9,14.5,15.2,14.5h9.8V83.8c0-9.4,8.2-17.8,17.9-17.8h28.6c7.9,0,14.3-6.5,14.3-14.5V24.3
	c0-7.7-6.5-13.6-14.3-14.9C73.3,8.6,68.2,8.2,63.3,8.2z M47.8,17c3,0,5.4,2.5,5.4,5.5c0,3-2.4,5.4-5.4,5.4c-3,0-5.4-2.4-5.4-5.4
	C42.5,19.4,44.9,17,47.8,17z"/>
<path fill="white" d="M96,33v12.7c0,9.8-8.3,18.1-17.9,18.1H49.6c-7.8,0-14.3,6.7-14.3,14.5v27.2c0,7.7,6.7,12.3,14.3,14.5
	c9,2.7,17.7,3.1,28.6,0c7.2-2.1,14.3-6.3,14.3-14.5V94.7H63.9V91h42.8c8.3,0,11.4-5.8,14.3-14.5c3-9,2.9-17.6,0-29.1
	c-2.1-8.3-6-14.5-14.3-14.5L96,33L96,33z M80,101.9c3,0,5.4,2.4,5.4,5.4c0,3-2.4,5.5-5.4,5.5c-3,0-5.4-2.5-5.4-5.5
	C74.6,104.3,77,101.9,80,101.9z"/>
</svg>
