<?xml version="1.0" encoding="utf-8"?>
<!-- Generator: Adobe Illustrator 20.1.0, SVG Export Plug-In . SVG Version: 6.00 Build 0)  -->
<svg version="1.1" id="Layer_1" xmlns="http://www.w3.org/2000/svg" xmlns:xlink="http://www.w3.org/1999/xlink" x="0px" y="0px"
	 viewBox="0 0 50 50" style="enable-background:new 0 0 50 50;" xml:space="preserve">
<style type="text/css">
	.st0{fill:#FFFFFF;}
</style>
<g>
	<path class="st0" d="M8.4,41.8c-0.7-1.2-2.2-1.6-2-3.2c0-0.1-0.2-0.3-0.3-0.3c-2.4-0.5-1.6-2.8-2.5-4.2c-0.2-0.3,0.1-0.9-0.1-1.1
		c-1.2-1.2-0.1-1.8,0.6-2.5c-0.3-0.4-0.7-0.8-1.1-1.2c0.9-0.5-0.1-0.9,0-1.3c0.2-1.4-0.3-2.5-1.2-3.6c-0.4-0.6-1-1.2-0.1-2.2
		C2.2,21.9,3,20.8,2,19.6c-0.6-0.7,0.6-1.3,0.8-2.1c0-0.1,0.7-0.1,0.7-0.2c-0.6-2.1,1.6-2.5,2.2-3.9c0.2-0.5,0.9-0.7,1.2-1.3
		C7,11.8,6,11.4,6.7,10.7c0.5,0.3,0.9,0.8,1.4,1C8.7,12,8.9,11,9.6,11.2c0.3,0.1,0.8,0.1,0.9-0.4c0.1-0.9,0.8-1.3,1.4-1.7
		c1.1-0.8,1.3-2.4,2.5-3c1.1-0.5,2.1-1.1,2.9-1.9c1-0.9,2.2-0.7,3.5,0.1c0.2-0.2,0.4-0.5,0.7-0.7c0.4-0.3,0.8-1.2,1.3-0.9
		c0.6,0.4,1.2,0.1,1.7,0.2C25.2,3,26,3.8,27,3.1c0.3-0.2,0.7,0.1,0.9,0.4c1.6,2.1,3.9,2.2,6.2,2.5c0.7,0.1,1.6,0.1,2.3,0
		c0.6-0.1,1.1,0.1,1.5,0.6c0.6,0.8,1.4,1.3,2.4,1.2c0.2-0.1,0.5,0.1,0.7,0.3c0.6,0.6,1.1,1.2,1.5,2c0.3,0.6,1.2,0.9,1.7,1.3
		c0.3,0.2,0.1,0.6,0.2,0.7c0.8,1.4,1.2,2.9,1.7,4.5c0.1,0.3,0.1,0.7-0.3,1c-0.5,0.3-0.4,1.2-0.2,1.3c1.3,0.9,1.2,2.3,1.2,3.6
		c0,0.1,0.1,0.2,0.2,0.2c1.9,1,1.4,2.9,1.6,4.6c0.2,2.1,0.3,2.1-0.8,3.5c-0.3,0.4-0.3,0.5,0.1,0.9c0.2,0.2,0.2,0.5,0.1,0.7
		c-0.7,1.8-3.5,4.4-5.8,5.4C41.5,38,41,38.5,40.7,39c-0.3,0.7-0.9,0.9-1.4,1.4c-0.7,0.7-1.4,0.7-2.2,1c0.7,0.7,0,1.6-0.3,2
		c-0.8,1-1.6,2.3-3.2,1.9c-0.1,0-0.2-0.1-0.3,0c-1.2,1.7-2.9,1.6-4.7,1.9c-1.2,0.2-2.2,0.6-3.3-0.1c-1-0.5-2.1,0.1-3.3-0.3
		c-1.1-0.4-2-0.8-2.8-1.7c-0.6-0.7-1.3-1.1-2.2-0.9c-0.7,0.1-1.3-0.1-1.7-0.7c-0.4-0.5-0.7-0.4-1.4-0.1c-1.6,0.7-2.9,0.2-3.9-1.4
		C9.4,40.9,9,41.2,8.4,41.8z M30.1,31.2c-0.9,0.6-1.4,1.2-1.2,2.2c0.2,0.8-0.5,1.4-0.5,2.1c-0.1,0.7-0.7,0.4-1,0.7
		c-0.4,0.5-0.1,1.1-0.2,1.7c-0.1,0.3-0.2,0.4-0.5,0.6c-1,0.7-2.4,1-2.6,2.7c-0.1,0.7-1,1.6-2.2,1.4c-0.5-0.1-1.2-0.3-1.6,0.3
		c0.7,0.7,1.8-0.1,2.6,0.7c0.5,0.5,1.7,0.5,2.5,0.4c0.7-0.1,1.6-0.6,2.4-0.5c0.5,0.1,0.6-0.1,0.8-0.2c0.3-0.3,0.6-0.8,1.2-0.6
		c1.2,0.3,1.4-0.7,2-1.3c0.6-0.7,1.7-1.2,1.8-2.1c0.2-1.1,0.6-1.8,1.3-2.7c0.7-0.9-0.5-1.8-0.1-2.7c0.1-0.1,0.1-0.2,0.1-0.2
		c0.7-0.6,0.5-1.1-0.1-1.6c-0.3-0.3-0.8-0.6-0.6-1.2c0.6-1.4-1.8-1.6-1.2-2.9c0,0-0.3-0.2-0.5-0.2c-1.5,0.1-2.5-1-3.6-2
		c-0.5,0.5-0.9,0.7-1.1,1.1c-0.3,0.5,0.2,0.9,0.6,1.2c0.6,0.4,0.6,0.9,0.5,1.5C28.8,30.1,29.5,30.5,30.1,31.2z M36.9,19.9
		c-0.4,0-0.7,0.1-1.2,0c-2.6-0.3-4.9,0.3-7.4,1.7c-0.4,0.2-0.6,0.4-0.5,0.7c0.1,0.3,0.3,0.5,0.6,0.4c1-0.1,1.8,0.6,2.9,0.6
		c1.9,0.1,3.2,1.8,5,2.4c0.9,0.3,0.5,1.3,0.8,2c0.2,0.3,0.6,0.7,0.8,0.7c1-0.1,0.7,0.7,0.9,1.1c0.7,1,0.2,2.6,1.6,3.4
		c0.2,0.1,0.1,0.9-0.1,1c-1,0.9,0.1,1,0.4,1.4c0.3-0.3,0.6-0.5,0.8-0.8c0.8-1.2,1.8-2.3,2.2-3.6c0.6-2.2-0.5-4.4-0.5-6.6
		c0-0.1-0.2-0.3-0.3-0.3c-1.2-0.1-1.7-1.2-2.4-1.9c-1.1-1.3-2.3-1.1-3.6-0.6C37,20.9,36.9,20.4,36.9,19.9z M6.3,24.3
		c0.9,0.3,1.5,0.5,1.8,1.1c0.7,1.3,1.6,2.4,3.2,2.7c0.6,0.1,0,1.1,0.9,1.2c0.8,0.1,1.6-0.3,2.4,0.3c0.8,0.6,1.7-0.3,2.5-0.5
		c1-0.3,2.7,0.1,3-0.8c0.5-1.2,2.2-1,2.4-2.5c-1.4,0-2.9-0.1-4.3-0.5c-1.6-0.5-2.7-1.8-4.3-2.1c-0.9-0.2-0.2-1.7-0.8-1.8
		c-1-0.2-1.6-0.9-1.9-1.6c-0.3-0.6-0.5-1.7,0.6-2.4c-2-0.2-2-1.7-1.9-3.6c-2,2.7-4.1,4.7-3.3,7.9c0.4,0.2,1,0.3,0.9,0.4
		C6.6,22.4,7.4,23.6,6.3,24.3z M27.4,11.8c-0.4,0.6,0.1,1.4-0.5,1.7c-1,0.5-1.3,1.5-1.8,2.4c-0.5,0.7-0.7,1.4-0.7,2.3
		c-0.1,0.8,0.3,1.5,0.3,2.2c0,0.2-0.4,0.4-0.1,0.6c0.2,0.1,0.5,0.1,0.6,0c0.5-0.3,1.1-0.7,1.2-1.2c0.3-1,1.4-1,1.8-1.8
		c0.6-1.1,1.7-1.1,2.8-1c0.1,0,0.3-0.3,0.4-0.3c1.5-1,3.3-0.6,4.9-1.3c0.3-0.2,0.9-0.1,1.3,0.2c1.5,1.2,3.3,0.9,5.3,0.8
		c-0.6-0.8-1.4-1.2-1.3-2.1c0.1-1.2-1.7-0.5-1.7-1.8c0-1.1-0.5,0-0.7-0.1c-0.5-0.1-1.3-0.4-1.3-0.7c-0.3-1.2-1-1-1.7-1
		c-0.3,0-0.6,0.1-0.9,0c-1.9-0.3-3.5-0.1-5,0.6C29.3,11.7,28.4,12,27.4,11.8z M24.6,27.9c-1.2,1.2-2.2,2.2-3.4,3.4
		c-0.3,0.3-0.6,0.7-1.2,0.6c-0.8-0.2-1.4,0.5-2,0.7c-1.8,0.5-3.7,0.7-5.6,0.9c-0.4,0-1.6-0.4-1.6-1.5c-0.6,0.7-1.5,0.5-2.3,0.5
		c-0.3,0-0.3-0.7-0.9-0.3c0,0.5,0,1.1,0,1.7c0,0.3-0.1,0.9,0.3,0.9c1.1,0.1,0.9,1.8,1.8,1.7c0.9-0.1,1,1.8,2.1,0.6
		c0.3,1.7,2,1,2.8,1.7c0.9-0.5-0.1-1.4,0.8-1.7c0.3,0.6-0.1,1.2,0.4,1.7c0.3-0.3,0.6-0.7,1.2-0.6c1,0.2,2.1-0.1,2.9-0.6
		c0.6-0.5,1.2-0.4,1.8-0.6c0.8-0.3,0.7-1.3,1.2-1.8c0.1-0.1,0.3-0.4,0.4-0.4c1.1,0.1,0.9-0.6,0.9-1.3c0-0.3-0.2-0.9,0.3-1
		c1.2-0.3,0.3-1.3,0.6-1.8C25.7,29.7,25.8,28.7,24.6,27.9z M22.7,23.2c-0.5-0.3-0.9-0.7-0.7-1.3c0.2-0.9-0.7-0.6-1-1
		c-0.2-0.2-0.2-0.6-0.1-0.7c0.6-0.8-0.1-1.6,0-2.4c0-0.5-0.1-0.9,0.3-1.3c0.5-0.5-0.7-0.8-0.3-1.4c0.1-0.1,0-0.2,0-0.3
		c0.2-0.8,1-0.9,1.6-1.3c0.8-0.6-1-1.2-0.3-1.9c0.6-0.6,0.9-1.5,2-1.4c0.2,0,0.5-0.2,0.7-0.3c-0.6-1.4,1.3-1.7,1.1-3.2
		c-0.8,0-1.7-0.1-2.5,0C22.6,6.8,21.3,6,21,7.1c-0.5,1.5-1.5,0.2-2.1,0.7c-0.1,0.1-0.3,0.3-0.3,0.5c0.3,1-0.8,1-1,1.6
		c-0.6,1.3-2.5,2.2-1.4,4.2c-0.8,0.3,0.2,1.2-0.1,1.2c-1.3,0.2-0.9,1.2-1,1.9l1.4,2.3c0.9,1,1.4,2.2,2.8,2.9c0.5,0.2,0.8,0.7,1.3,0
		c0.5,0.3,0.7,1.2,1.6,1.2C22.2,23.3,22.3,23.3,22.7,23.2z"/>
</g>
</svg>
