<?xml version="1.0" encoding="utf-8"?>
<!-- Generator: Adobe Illustrator 20.1.0, SVG Export Plug-In . SVG Version: 6.00 Build 0)  -->
<svg version="1.1" id="Layer_1" xmlns="http://www.w3.org/2000/svg" xmlns:xlink="http://www.w3.org/1999/xlink" x="0px" y="0px"
	 viewBox="0 0 50 50" style="enable-background:new 0 0 50 50;" xml:space="preserve">
<style type="text/css">
	.st0{fill:#FFFFFF;}
</style>
<g>
	<path class="st0" d="M25,2.5C12.3,2.5,2,12.8,2,25.6c0,10.2,6.6,18.8,15.8,21.9c1.1,0.2,1.6-0.5,1.6-1.1c0-0.5,0-2.4,0-4.3
		c-6.4,1.4-7.7-2.7-7.7-2.7C10.5,36.7,9,36,9,36c-2.1-1.4,0.2-1.4,0.2-1.4c2.3,0.2,3.5,2.4,3.5,2.4c2.1,3.5,5.4,2.5,6.7,1.9
		c0.2-1.5,0.8-2.5,1.5-3.1c-5.1-0.6-10.5-2.6-10.5-11.4c0-2.5,0.9-4.6,2.4-6.2c-0.2-0.6-1-2.9,0.2-6.1c0,0,1.9-0.6,6.3,2.4
		c1.8-0.5,3.8-0.8,5.8-0.8s3.9,0.3,5.8,0.8c4.4-3,6.3-2.4,6.3-2.4c1.3,3.2,0.5,5.5,0.2,6.1c1.5,1.6,2.4,3.7,2.4,6.2
		c0,8.9-5.4,10.8-10.5,11.4c0.8,0.7,1.6,2.1,1.6,4.3c0,3.1,0,5.6,0,6.3c0,0.6,0.4,1.3,1.6,1.1C41.4,44.4,48,35.8,48,25.6
		C48.1,12.8,37.7,2.5,25,2.5L25,2.5z"/>
	<path class="st0" d="M10.7,35.6c0,0.1-0.2,0.2-0.4,0.1c-0.2-0.1-0.3-0.2-0.2-0.3c0-0.1,0.2-0.2,0.4-0.1
		C10.7,35.3,10.7,35.5,10.7,35.6L10.7,35.6z M11.6,36.6c-0.1,0.1-0.3,0-0.5-0.1C11,36.4,11,36.1,11.1,36c0.1-0.1,0.3,0,0.5,0.1
		C11.7,36.3,11.7,36.5,11.6,36.6L11.6,36.6z M12.5,38c-0.2,0.1-0.4,0-0.5-0.2c-0.2-0.2-0.2-0.5,0-0.5c0.2-0.1,0.4,0,0.5,0.2
		S12.7,37.8,12.5,38L12.5,38z M13.8,39.3c-0.1,0.2-0.4,0.1-0.6-0.1c-0.2-0.2-0.3-0.5-0.1-0.6c0.1-0.2,0.4-0.1,0.6,0.1
		C13.9,38.8,13.9,39.1,13.8,39.3L13.8,39.3z M15.5,40c0,0.2-0.3,0.3-0.6,0.2c-0.3-0.1-0.4-0.3-0.4-0.5c0-0.2,0.3-0.3,0.6-0.2
		C15.4,39.6,15.6,39.8,15.5,40z M17.4,40.1c0,0.2-0.2,0.3-0.5,0.3c-0.3,0-0.5-0.2-0.5-0.3c0-0.2,0.2-0.3,0.5-0.3
		C17.2,39.8,17.4,39.9,17.4,40.1L17.4,40.1z M19.1,39.8c0,0.2-0.2,0.4-0.4,0.4c-0.3,0-0.5-0.1-0.5-0.3c0-0.2,0.2-0.4,0.4-0.4
		C18.9,39.5,19.1,39.6,19.1,39.8L19.1,39.8z"/>
</g>
</svg>
