<?xml version="1.0" encoding="utf-8"?>
<!-- Generator: Adobe Illustrator 20.1.0, SVG Export Plug-In . SVG Version: 6.00 Build 0)  -->
<svg version="1.1" id="Layer_1" xmlns="http://www.w3.org/2000/svg" xmlns:xlink="http://www.w3.org/1999/xlink" x="0px" y="0px"
	 viewBox="0 0 50 50" style="enable-background:new 0 0 50 50;" xml:space="preserve">
<style type="text/css">
	.st0{fill:#FFFFFF;}
</style>
<g>
	<path class="st0" d="M40.5,2.5h-31c-3.9,0-7,3.2-7,7v31c0,3.9,3.2,7,7,7h31c3.9,0,7-3.2,7-7v-31C47.5,5.7,44.3,2.5,40.5,2.5z
		 M18.9,35.7H14V21.2h4.9V35.7z M16.5,19.2L16.5,19.2c-1.6,0-2.7-1.1-2.7-2.5c0-1.4,1.1-2.5,2.7-2.5s2.7,1.1,2.7,2.5
		S18.2,19.2,16.5,19.2z M36.2,35.7h-4.9V28c0-2-0.7-3.2-2.4-3.2c-1.3,0-2.2,0.9-2.5,1.8c-0.1,0.3-0.2,0.7-0.2,1.2v8.1h-4.9
		c0,0,0.1-13.1,0-14.5h4.9v2.1c0.6-1,1.8-2.4,4.3-2.4c3.1,0,5.6,2.1,5.6,6.6C36.2,27.4,36.2,35.7,36.2,35.7z"/>
	<path class="st0" d="M26.4,23.4L26.4,23.4C26.4,23.3,26.4,23.3,26.4,23.4L26.4,23.4z"/>
</g>
</svg>
