<?xml version="1.0" encoding="utf-8"?>
<!-- Generator: Adobe Illustrator 20.1.0, SVG Export Plug-In . SVG Version: 6.00 Build 0)  -->
<svg version="1.1" id="Layer_1" xmlns="http://www.w3.org/2000/svg" xmlns:xlink="http://www.w3.org/1999/xlink" x="0px" y="0px"
	 viewBox="0 0 50 50" style="enable-background:new 0 0 50 50;" xml:space="preserve">
<style type="text/css">
	.st0{fill:#FFFFFF;}
</style>
<path class="st0" d="M38.9,30.4c-0.2,0.1-0.7,0.2-1,0.2c-1.1,0-2.4-0.5-4.3-1.3c0.7-0.1,1.4-0.1,2-0.1c1.1,0,1.4,0,2.5,0.3
	C39.1,29.7,39.1,30.2,38.9,30.4L38.9,30.4z M20,30.5c0.4-0.7,0.9-1.5,1.3-2.4c1.1-2,1.8-3.6,2.3-4.9c1,1.8,2.3,3.4,3.7,4.6
	c0.2,0.2,0.4,0.3,0.6,0.5C24.9,28.9,22.3,29.6,20,30.5z M23.5,11.3c0.6,0,0.9,1.5,1,2.9c0,1.4-0.3,2.4-0.7,3.1
	c-0.3-1.1-0.5-2.8-0.5-3.9C23.3,13.4,23.3,11.3,23.5,11.3z M11.8,38.3c0.3-0.9,1.7-2.8,3.7-4.4c0.1-0.1,0.4-0.4,0.7-0.7
	C14.1,36.6,12.7,37.9,11.8,38.3L11.8,38.3z M39.5,28.4c-0.6-0.6-1.9-0.9-4-0.9c-1.4,0-3,0.1-4.8,0.3c-0.8-0.4-1.6-0.9-2.2-1.5
	c-1.7-1.6-3.1-3.8-4-6.2c0.1-0.2,0.1-0.4,0.1-0.6c0,0,0.9-5.4,0.7-7.2c0-0.3-0.1-0.3-0.1-0.5l-0.1-0.2c-0.3-0.6-0.8-1.2-1.6-1.2
	l-0.5,0h0c-0.9,0-1.6,0.5-1.8,1.1c-0.6,2.1,0,5.3,1.1,9.4l-0.3,0.7c-0.8,1.9-1.7,3.8-2.6,5.4l-0.1,0.2c-0.9,1.8-1.7,3.3-2.5,4.5
	l-0.8,0.4c-0.1,0-1.4,0.7-1.7,0.9c-2.6,1.6-4.3,3.3-4.6,4.7c-0.1,0.4,0,1,0.4,1.3l0.7,0.4c0.3,0.2,0.7,0.2,1,0.2c1.9,0,4-2.3,7-7.5
	c3.4-1.1,7.3-2,10.7-2.6c2.6,1.5,5.8,2.5,7.8,2.5c0.4,0,0.7,0,0.9-0.1c0.4-0.1,0.7-0.3,0.9-0.6c0.4-0.6,0.5-1.4,0.4-2.2
	C39.9,28.9,39.7,28.6,39.5,28.4L39.5,28.4z"/>
<path class="st0" d="M42.2,11.3L35.9,5c-1.4-1.4-4.1-2.5-6-2.5H8.8C6.9,2.5,5.3,4.1,5.3,6v38c0,1.9,1.6,3.5,3.5,3.5h32.3
	c1.9,0,3.5-1.6,3.5-3.5V17.3C44.7,15.3,43.6,12.6,42.2,11.3z M33.4,6.6c0.2,0.1,0.4,0.3,0.5,0.4l6.3,6.3c0.1,0.1,0.3,0.3,0.4,0.5
	h-7.2V6.6z M41.9,44c0,0.4-0.3,0.7-0.7,0.7H8.8c-0.4,0-0.7-0.3-0.7-0.7V6c0-0.4,0.3-0.7,0.7-0.7h21.1c0.2,0,0.4,0,0.7,0.1v11.2h11.2
	c0.1,0.3,0.1,0.5,0.1,0.7V44z"/>
</svg>
